<svg width="21" height="20" viewBox="0 0 21 20" fill="none" xmlns="http://www.w3.org/2000/svg">
<g id="Copy">
<g id="Group">
<path id="Vector" fill-rule="evenodd" clip-rule="evenodd" d="M8.00002 1.66666C7.55799 1.66666 7.13407 1.84225 6.82151 2.15481C6.50895 2.46737 6.33335 2.8913 6.33335 3.33332V4.99999H8.00002V3.33332H17.1667V12.5H15.5V14.1667H17.1667C17.6087 14.1667 18.0326 13.9911 18.3452 13.6785C18.6578 13.3659 18.8334 12.942 18.8334 12.5V3.33332C18.8334 2.8913 18.6578 2.46737 18.3452 2.15481C18.0326 1.84225 17.6087 1.66666 17.1667 1.66666H8.00002ZM3.83335 5.83332C3.39133 5.83332 2.9674 6.00892 2.65484 6.32148C2.34228 6.63404 2.16669 7.05796 2.16669 7.49999V16.6667C2.16669 17.1087 2.34228 17.5326 2.65484 17.8452C2.9674 18.1577 3.39133 18.3333 3.83335 18.3333H13C13.442 18.3333 13.866 18.1577 14.1785 17.8452C14.4911 17.5326 14.6667 17.1087 14.6667 16.6667V7.49999C14.6667 7.05796 14.4911 6.63404 14.1785 6.32148C13.866 6.00892 13.442 5.83332 13 5.83332H3.83335ZM3.83335 7.49999H13V16.6667H3.83335V7.49999Z" fill="white"/>
</g>
</g>
</svg>
