<svg width="32" height="32" viewBox="0 0 32 32" fill="none" xmlns="http://www.w3.org/2000/svg">
<path fill-rule="evenodd" clip-rule="evenodd" d="M20.0043 5.3335C20.9963 5.3335 22.0443 5.68016 23.0043 6.06283L23.707 6.35083C25.387 7.05483 26.331 8.53216 27.063 10.1548C28.251 12.7882 29.0763 16.2988 29.3617 18.9682C29.4977 20.2348 29.531 21.5095 29.287 22.3668C29.0243 23.2828 28.131 23.9308 27.263 24.4402L26.8337 24.6842L26.3883 24.9322C26.1572 25.0602 25.9239 25.1864 25.6883 25.3108L24.9923 25.6708L24.0363 26.1468L23.267 26.5255C23.1098 26.6102 22.9373 26.6626 22.7595 26.6794C22.5817 26.6961 22.4024 26.677 22.2321 26.6232C22.0619 26.5694 21.9042 26.4819 21.7684 26.3659C21.6326 26.25 21.5214 26.1079 21.4416 25.9482C21.3617 25.7885 21.3148 25.6144 21.3035 25.4362C21.2922 25.258 21.3168 25.0793 21.3759 24.9108C21.435 24.7423 21.5273 24.5874 21.6474 24.4552C21.7675 24.3231 21.9129 24.2164 22.075 24.1415L23.1283 23.6215L22.355 22.8095C20.5017 23.5695 18.319 24.0002 16.0003 24.0002C13.6817 24.0002 11.499 23.5708 9.64568 22.8095L8.87234 23.6202L9.92968 24.1402C10.0864 24.2184 10.2261 24.3268 10.341 24.4591C10.4558 24.5914 10.5435 24.745 10.5989 24.9111C10.6544 25.0773 10.6766 25.2527 10.6643 25.4275C10.6519 25.6022 10.6053 25.7728 10.527 25.9295C10.4487 26.0862 10.3404 26.226 10.2081 26.3408C10.0758 26.4556 9.92221 26.5433 9.75606 26.5987C9.42049 26.7108 9.05417 26.6849 8.73768 26.5268L8.01234 26.1668C7.47634 25.9002 6.93901 25.6362 6.40834 25.3575L5.17101 24.6842L4.74301 24.4402C3.87501 23.9308 2.98034 23.2828 2.71901 22.3668C2.47368 21.5095 2.50834 20.2362 2.64301 18.9668C2.92834 16.2988 3.75368 12.7882 4.94168 10.1548C5.67368 8.53216 6.61768 7.05483 8.29768 6.35083C9.41234 5.88416 10.763 5.3335 12.0003 5.3335C12.8043 5.3335 13.4363 6.0735 13.3203 6.86283C14.2078 6.7332 15.1035 6.66769 16.0003 6.66683C16.9217 6.66683 17.8217 6.7335 18.6857 6.86416C18.66 6.67481 18.6748 6.48217 18.7291 6.29897C18.7835 6.11578 18.8761 5.94622 19.0009 5.80151C19.1257 5.6568 19.2798 5.54025 19.453 5.45957C19.6262 5.37889 19.8133 5.33591 20.0043 5.3335ZM11.667 14.0002C11.0482 14.0002 10.4547 14.246 10.0171 14.6836C9.57951 15.1212 9.33368 15.7147 9.33368 16.3335C9.33368 16.9523 9.57951 17.5458 10.0171 17.9834C10.4547 18.421 11.0482 18.6668 11.667 18.6668C12.2858 18.6668 12.8793 18.421 13.3169 17.9834C13.7545 17.5458 14.0003 16.9523 14.0003 16.3335C14.0003 15.7147 13.7545 15.1212 13.3169 14.6836C12.8793 14.246 12.2858 14.0002 11.667 14.0002ZM20.3337 14.0002C19.7148 14.0002 19.1213 14.246 18.6838 14.6836C18.2462 15.1212 18.0003 15.7147 18.0003 16.3335C18.0003 16.9523 18.2462 17.5458 18.6838 17.9834C19.1213 18.421 19.7148 18.6668 20.3337 18.6668C20.9525 18.6668 21.546 18.421 21.9836 17.9834C22.4212 17.5458 22.667 16.9523 22.667 16.3335C22.667 15.7147 22.4212 15.1212 21.9836 14.6836C21.546 14.246 20.9525 14.0002 20.3337 14.0002Z" fill="#7D7D7D"/>
</svg>
