<svg width="32" height="32" viewBox="0 0 32 32" fill="none" xmlns="http://www.w3.org/2000/svg">
<rect x="0.5" y="0.5" width="31" height="31" rx="5.5" fill="#111111"/>
<rect x="0.5" y="0.5" width="31" height="31" rx="5.5" stroke="#232323"/>
<g filter="url(#filter0_d_77_1992)">
<path d="M9.33333 4H14.6667V6.66667H9.33333V4Z" fill="#0C0C0C"/>
<path d="M14.6667 6.66667H17.3333V9.33333H14.6667V6.66667Z" fill="#0C0C0C"/>
<path d="M6.66667 6.66667H9.33333V9.33333H6.66667V6.66667Z" fill="#0C0C0C"/>
<path d="M17.3333 4H22.6667V6.66667H17.3333V4Z" fill="#0C0C0C"/>
<path d="M22.6667 6.66667H25.3333V9.33333H22.6667V6.66667Z" fill="#0C0C0C"/>
<path d="M25.3333 9.33333H28V17.3333H25.3333V9.33333Z" fill="#0C0C0C"/>
<path d="M4 9.33333H6.66667V17.3333H4V9.33333Z" fill="#0C0C0C"/>
<path d="M22.6667 17.3333H25.3333V20H22.6667V17.3333Z" fill="#0C0C0C"/>
<path d="M9.33333 17.3333H6.66667V20H9.33333V17.3333Z" fill="#0C0C0C"/>
<path d="M20 20H22.6667V22.6667H20V20Z" fill="#0C0C0C"/>
<path d="M12 20H9.33333V22.6667H12V20Z" fill="#0C0C0C"/>
<path d="M17.3333 22.6667H20V25.3333H17.3333V22.6667Z" fill="#0C0C0C"/>
<path d="M14.6667 22.6667H12V25.3333H14.6667V22.6667Z" fill="#0C0C0C"/>
<path d="M14.6667 25.3333H17.3333V28H14.6667V25.3333Z" fill="#0C0C0C"/>
<path d="M14.6667 22.6667V25.3333H17.3333V22.6667H20V20H22.6667V17.3333H25.3333V9.33333H22.6667V6.66667H17.3333V9.33333H14.6667V6.66667H9.33333V9.33333H6.66667V17.3333H9.33333V20H12V22.6667H14.6667Z" fill="#8D0F0F"/>
<path d="M17.3333 25.3333H14.6667V22.6667H12V20H9.33333V17.3333H6.66667V14.6667H9.33333V17.3333H12V20H14.6667V22.6667H17.3333V25.3333Z" fill="#691111"/>
<path d="M12 9.33333H9.33333V12H12V9.33333Z" fill="#FF8989"/>
<path d="M17.3333 22.6667V20H20V17.3333H22.6667V14.6667H25.3333V17.3333H22.6667V20H20V22.6667H17.3333Z" fill="#691111"/>
</g>
<defs>
<filter id="filter0_d_77_1992" x="4" y="4" width="25" height="25" filterUnits="userSpaceOnUse" color-interpolation-filters="sRGB">
<feFlood flood-opacity="0" result="BackgroundImageFix"/>
<feColorMatrix in="SourceAlpha" type="matrix" values="0 0 0 0 0 0 0 0 0 0 0 0 0 0 0 0 0 0 127 0" result="hardAlpha"/>
<feOffset dx="1" dy="1"/>
<feComposite in2="hardAlpha" operator="out"/>
<feColorMatrix type="matrix" values="0 0 0 0 0 0 0 0 0 0 0 0 0 0 0 0 0 0 0.25 0"/>
<feBlend mode="normal" in2="BackgroundImageFix" result="effect1_dropShadow_77_1992"/>
<feBlend mode="normal" in="SourceGraphic" in2="effect1_dropShadow_77_1992" result="shape"/>
</filter>
</defs>
</svg>
