<svg width="32" height="32" viewBox="0 0 32 32" fill="none" xmlns="http://www.w3.org/2000/svg">
<rect x="0.5" y="0.5" width="31" height="31" rx="5.5" fill="#111111"/>
<rect x="0.5" y="0.5" width="31" height="31" rx="5.5" stroke="#232323"/>
<path d="M13.2308 28H18.7692V26.1538H22.4615V24.3077H24.3077V22.4615H26.1538V18.7692H28V13.2308H26.1538V9.53846H24.3077V7.69231H22.4615V5.84615H18.7692V4H13.2308V5.84615H9.53846V7.69231H7.69231V9.53846H5.84615V13.2308H4V18.7692H5.84615V22.4615H7.69231V24.3077H9.53846V26.1538H13.2308V28Z" fill="#102C31"/>
<path d="M5.84615 18.7692H7.69231V22.4615H5.84615V18.7692Z" fill="#1E4835"/>
<path d="M5.84615 9.53846H7.69231V13.2308H5.84615V9.53846Z" fill="#1E4835"/>
<path d="M15.0769 5.84615V4L18.7692 4V5.84615H15.0769Z" fill="#1E4835"/>
<path d="M9.53846 7.69231V5.84615H13.2308V7.69231L9.53846 7.69231Z" fill="#316364"/>
<path d="M13.2308 5.84615V4L15.0769 4V5.84615H13.2308Z" fill="#316364"/>
<path d="M7.69231 9.53846V7.69231H9.53846V9.53846L7.69231 9.53846Z" fill="#316364"/>
<path d="M20.6154 9.53846V7.69231H22.4615V9.53846L20.6154 9.53846Z" fill="#316364"/>
<path d="M22.4615 11.3846V9.53846L24.3077 9.53846V11.3846H22.4615Z" fill="#316364"/>
<path d="M22.4615 22.4615V20.6154H24.3077V22.4615H22.4615Z" fill="#316364"/>
<path d="M20.6154 24.3077V22.4615H22.4615V24.3077H20.6154Z" fill="#316364"/>
<path d="M13.2308 26.1538V24.3077H18.7692V26.1538H13.2308Z" fill="#316364"/>
<path d="M9.53846 24.3077V22.4615H11.3846V24.3077H9.53846Z" fill="#316364"/>
<path d="M7.69231 22.4615V20.6154H9.53846V22.4615H7.69231Z" fill="#316364"/>
<path d="M5.84615 18.7692V13.2308H7.69231V18.7692H5.84615Z" fill="#316364"/>
<path d="M7.69231 11.3846V9.53846L9.53846 9.53846V11.3846H7.69231Z" fill="#4E8386"/>
<path d="M9.53846 9.53846V7.69231L11.3846 7.69231V9.53846H9.53846Z" fill="#4E8386"/>
<path d="M13.2308 7.69231V5.84615H18.7692V7.69231H13.2308Z" fill="#4E8386"/>
<path d="M7.69231 20.6154V18.7692H9.53846V20.6154H7.69231Z" fill="#4E8386"/>
<path d="M9.53846 22.4615V20.6154H11.3846V22.4615H9.53846Z" fill="#4E8386"/>
<path d="M18.7692 22.4615V20.6154H20.6154V22.4615H18.7692Z" fill="#4E8386"/>
<path d="M18.7692 20.6154V18.7692H20.6154V20.6154H18.7692Z" fill="#71AC49"/>
<path d="M18.7692 18.7692V16.9231H20.6154V18.7692H18.7692Z" fill="#88C35A"/>
<path d="M16.9231 20.6154V18.7692H18.7692V20.6154H16.9231Z" fill="#97D16B"/>
<path d="M13.2308 20.6154V18.7692H15.0769V20.6154H13.2308Z" fill="#88C35A"/>
<path d="M15.0769 22.4615V20.6154H16.9231V22.4615H15.0769Z" fill="#579143"/>
<path d="M15.0769 20.6154V18.7692H16.9231V20.6154H15.0769Z" fill="#1E4835"/>
<path d="M15.0769 13.2308V11.3846H16.9231V13.2308H15.0769Z" fill="#1E4835"/>
<path d="M13.2308 18.7692V13.2308H15.0769V18.7692H13.2308Z" fill="#1E4835"/>
<path d="M16.9231 18.7692V13.2308H18.7692V18.7692H16.9231Z" fill="#1E4835"/>
<path d="M15.0769 18.7692V13.2308H16.9231V18.7692H15.0769Z" fill="#1B2B10"/>
<path d="M16.9231 22.4615V20.6154H18.7692V22.4615H16.9231Z" fill="#71AC49"/>
<path d="M20.6154 22.4615V20.6154H22.4615V22.4615H20.6154Z" fill="#71AC49"/>
<path d="M22.4615 18.7692V16.9231H24.3077V18.7692H22.4615Z" fill="#71AC49"/>
<path d="M18.7692 13.2308V11.3846H20.6154V13.2308H18.7692Z" fill="#71AC49"/>
<path d="M16.9231 11.3846V9.53846L18.7692 9.53846V11.3846H16.9231Z" fill="#71AC49"/>
<path d="M13.2308 22.4615V20.6154H15.0769V22.4615H13.2308Z" fill="#71AC49"/>
<path d="M11.3846 20.6154V18.7692H13.2308V20.6154H11.3846Z" fill="#71AC49"/>
<path d="M9.53846 15.0769V13.2308H11.3846V15.0769H9.53846Z" fill="#B5E45A"/>
<path d="M11.3846 13.2308V11.3846H13.2308V13.2308H11.3846Z" fill="#B5E45A"/>
<path d="M13.2308 11.3846V9.53846L15.0769 9.53846V11.3846H13.2308Z" fill="#B5E45A"/>
<path d="M15.0769 11.3846V9.53846L16.9231 9.53846V11.3846H15.0769Z" fill="#97D16B"/>
<path d="M13.2308 13.2308V11.3846H15.0769V13.2308H13.2308Z" fill="#97D16B"/>
<path d="M16.9231 13.2308V11.3846H18.7692V13.2308H16.9231Z" fill="#579143"/>
<path d="M18.7692 16.9231V13.2308H20.6154V16.9231H18.7692Z" fill="#579143"/>
<path d="M11.3846 15.0769V13.2308H13.2308V15.0769H11.3846Z" fill="#97D16B"/>
<path d="M11.3846 16.9231V15.0769H13.2308V16.9231H11.3846Z" fill="#88C35A"/>
<path d="M11.3846 18.7692V16.9231H13.2308V18.7692H11.3846Z" fill="#579143"/>
<path d="M11.3846 11.3846V9.53846L13.2308 9.53846V11.3846H11.3846Z" fill="#CBFCDD"/>
<path d="M9.53846 13.2308V11.3846H11.3846V13.2308H9.53846Z" fill="#CBFCDD"/>
<path d="M9.53846 18.7692V15.0769H11.3846V18.7692H9.53846Z" fill="#71AC49"/>
<path d="M7.69231 16.9231V15.0769H9.53846V16.9231H7.69231Z" fill="#71AC49"/>
<path d="M20.6154 18.7692V13.2308H22.4615V18.7692H20.6154Z" fill="#71AC49"/>
<path d="M20.6154 20.6154V18.7692H22.4615V20.6154H20.6154Z" fill="#4E8386"/>
<path d="M18.7692 24.3077V22.4615H20.6154V24.3077H18.7692Z" fill="#659B7D"/>
<path d="M22.4615 20.6154V18.7692H24.3077V20.6154H22.4615Z" fill="#659B7D"/>
<path d="M22.4615 16.9231V11.3846H24.3077V16.9231H22.4615Z" fill="#659B7D"/>
<path d="M20.6154 13.2308V9.53846L22.4615 9.53846V13.2308H20.6154Z" fill="#659B7D"/>
<path d="M18.7692 11.3846V7.69231L20.6154 7.69231V11.3846H18.7692Z" fill="#659B7D"/>
<path d="M11.3846 9.53846V7.69231H18.7692V9.53846H11.3846Z" fill="#659B7D"/>
<path d="M9.53846 11.3846V9.53846H11.3846V11.3846H9.53846Z" fill="#659B7D"/>
<path d="M7.69231 15.0769V11.3846H9.53846V15.0769H7.69231Z" fill="#659B7D"/>
<path d="M7.69231 18.7692V16.9231H9.53846V18.7692H7.69231Z" fill="#659B7D"/>
<path d="M9.53846 20.6154V18.7692H11.3846V20.6154H9.53846Z" fill="#659B7D"/>
<path d="M11.3846 22.4615V20.6154H13.2308V22.4615H11.3846Z" fill="#659B7D"/>
<path d="M11.3846 24.3077V22.4615H18.7692V24.3077H11.3846Z" fill="#4E8386"/>
<path d="M24.3077 18.7692V13.2308H26.1538V18.7692H24.3077Z" fill="#316364"/>
<path d="M18.7692 7.69231V5.84615H22.4615V7.69231L18.7692 7.69231Z" fill="#1E4835"/>
<path d="M22.4615 9.53846V7.69231H24.3077V9.53846L22.4615 9.53846Z" fill="#1E4835"/>
<path d="M24.3077 11.3846V9.53846H26.1538V11.3846H24.3077Z" fill="#1E4835"/>
<path d="M4 13.2308H5.84615V18.7692H4V13.2308Z" fill="#1E4835"/>
</svg>
