<svg width="40" height="40" viewBox="0 0 40 40" fill="none" xmlns="http://www.w3.org/2000/svg">
<rect x="1" y="1" width="38" height="38" rx="5" fill="#FFCD7C"/>
<rect x="1" y="1" width="38" height="38" rx="5" fill="white"/>
<rect x="1" y="1" width="38" height="38" rx="5" stroke="white" stroke-width="2"/>
<path d="M18.0927 27.9857L19.8039 26.9733L21.5152 27.9857L26.7059 24.9626L28.4456 25.975V25.1052L26.7059 24.0784L21.5294 27.1016L19.8039 26.1034L18.0784 27.1016L12.902 24.0784L11.1622 25.0909V25.975L12.902 24.9626L18.0927 27.9857Z" fill="#763A30"/>
<path d="M33.6078 20.9412L32.8806 20.4991L30.1569 22.082L28.4456 21.0695V21.9537L30.1569 22.9376L33.6078 20.9412Z" fill="#763A30"/>
<path d="M9.45098 22.9519L11.1622 21.9537V21.0838L9.45098 22.082L6.74153 20.4991L6.01426 20.9412L9.45098 22.9519Z" fill="#763A30"/>
<path d="M6 16.9198L8.68093 18.4884L9.42246 18.0606L6 16.0642V16.9198Z" fill="#763A30"/>
<path d="M30.9269 18.4884L33.6078 16.9198V16.0642L30.1854 18.0606L30.9269 18.4884Z" fill="#763A30"/>
<path d="M26.7059 10.902L28.4171 11.9002V11.016L26.7059 10.0463V10.902Z" fill="#763A30"/>
<path d="M12.902 10.0463L11.1907 11.016V11.9002L12.902 10.902V10.0463Z" fill="#763A30"/>
<path d="M11.1622 25.0909L12.902 24.0784L18.0784 27.1016L19.8039 26.1034L21.5294 27.1016L26.7059 24.0784L28.4456 25.1052V21.9537V21.0695L30.1569 22.082L32.8806 20.4991L33.6078 20.0713L30.9269 18.4884L30.1854 18.0606L33.6078 16.0642V12.0143L31.8966 13.0267V6.98039L30.1569 8.00713V5.99643L26.7059 4V10.0463L28.4171 11.016V11.9002V15.0374L24.9661 17.0481V19.0588L19.8039 22.0677L14.6417 19.0731V17.0624L11.1907 15.0517V11.9002V11.016L12.902 10.0463V4L9.45098 5.99643V8.00713L7.72549 6.99465L7.71123 13.0125L6 12.0143V16.0642L9.42246 18.0606L8.68093 18.4884L6 20.0713L6.74153 20.4991L9.45098 22.082L11.1622 21.0838V21.9537V25.0909Z" fill="#DB7543"/>
<path d="M18.0784 17.9323L21.5294 15.9216V15.0517L18.0784 17.0624V17.9323Z" fill="#763A30"/>
<path d="M21.5294 13.041L18.0784 15.0374V17.0624L21.5294 15.0517V13.041Z" fill="#DB7543"/>
<path d="M18.0642 36L19.8039 35.016L21.5437 36V35.1301L19.8039 34.1462L18.0642 35.1444V36Z" fill="#763A30"/>
<path d="M21.5437 31.123L19.8039 30.1105L18.0642 31.1087V35.1444L19.8039 34.1462L21.5437 35.1301V31.123Z" fill="#DB7543"/>
<path d="M12.902 35.016L14.6275 34.0036V33.1194L12.902 34.1319V35.016Z" fill="#763A30"/>
<path d="M14.6275 31.123L12.902 32.1212V34.1319L14.6275 33.1194V31.123Z" fill="#DB7543"/>
<path d="M26.7201 35.016L24.9947 34.0036V33.1194L26.7201 34.1319V35.016Z" fill="#763A30"/>
<path d="M24.9947 31.123L26.7201 32.1212V34.1319L24.9947 33.1194V31.123Z" fill="#DB7543"/>
</svg>
