<svg width="17" height="16" viewBox="0 0 17 16" fill="none" xmlns="http://www.w3.org/2000/svg">
<g id="Frame" clip-path="url(#clip0_114_279)">
<g id="Group">
<path id="Vector" fill-rule="evenodd" clip-rule="evenodd" d="M9.23201 10.6968C9.03784 10.891 8.77451 11 8.49994 11C8.22538 11 7.96205 10.891 7.76788 10.6968L4.83857 7.76752C4.69374 7.62265 4.59514 7.43808 4.55523 7.23715C4.51533 7.03622 4.53592 6.82798 4.61441 6.63876C4.69289 6.44954 4.82573 6.28785 4.99613 6.17414C5.16653 6.06044 5.36682 5.99984 5.57167 6H11.4282C11.6331 5.99984 11.8334 6.06044 12.0038 6.17414C12.1742 6.28785 12.307 6.44954 12.3855 6.63876C12.464 6.82798 12.4846 7.03622 12.4447 7.23715C12.4048 7.43808 12.3061 7.62265 12.1613 7.76752L9.23201 10.6968Z" fill="white"/>
</g>
</g>
<defs>
<clipPath id="clip0_114_279">
<rect width="16" height="16" fill="white" transform="translate(0.5)"/>
</clipPath>
</defs>
</svg>
